<svg viewBox="0 0 100 100" fill="none" xmlns="http://www.w3.org/2000/svg">
  <defs>
    <linearGradient id="oc-gradient" x1="0%" y1="0%" x2="100%" y2="100%">
      <stop offset="0%" stopColor="#6366F1" />
      <stop offset="50%" stopColor="#8B5CF6" />
      <stop offset="100%" stopColor="#EC4899" />
    </linearGradient>
  </defs>
  <rect x="5" y="5" width="90" height="90" rx="24" fill="url(#oc-gradient)" />
  <path
    d="M50 28C36.7 28 26 36.5 26 47C26 51.5 28.2 55.6 32 58.7V72L45 66.5C46.6 66.8 48.3 67 50 67C63.3 67 74 58.5 74 47C74 35.5 63.3 28 50 28ZM50 61C40.6 61 33 54.7 33 47C33 39.3 40.6 33 50 33C59.4 33 67 39.3 67 47C67 54.7 59.4 61 50 61Z"
    fill="#FFFFFF"
  />
  <circle cx="50" cy="47" r="6" fill="#FFFFFF" />
</svg>
